<?xml version="1.0" encoding="UTF-8" standalone="no"?>
<svg
   xmlns:dc="http://purl.org/dc/elements/1.1/"
   xmlns:cc="http://creativecommons.org/ns#"
   xmlns:rdf="http://www.w3.org/1999/02/22-rdf-syntax-ns#"
   xmlns:svg="http://www.w3.org/2000/svg"
   xmlns="http://www.w3.org/2000/svg"
   viewBox="0 0 1440 1440"
   height="1440"
   width="1440"
   xml:space="preserve"
   id="svg2"
   version="1.1"><metadata
     id="metadata8"><rdf:RDF><cc:Work
         rdf:about=""><dc:format>image/svg+xml</dc:format><dc:type
           rdf:resource="http://purl.org/dc/dcmitype/StillImage" /></cc:Work></rdf:RDF></metadata><defs
     id="defs6"><clipPath
       id="clipPath18"
       clipPathUnits="userSpaceOnUse"><path
         id="path16"
         d="M 0,1080 H 1080 V 0 H 0 Z" /></clipPath></defs><g
     transform="matrix(1.3333333,0,0,-1.3333333,0,1440)"
     id="g10"><g
       id="g12"><g
         clip-path="url(#clipPath18)"
         id="g14"><g
           transform="translate(283.0176,256.9089)"
           id="g20"><path
             id="path22"
             style="fill:#ffffff;fill-opacity:1;fill-rule:nonzero;stroke:none"
             d="m 0,0 -74.774,-50.595 c 84.625,-84.14 200.965,-136.396 329.293,-137.058 l -17.882,89.92 C 148.55,-92.189 65.833,-58.219 0,0" /></g><g
           transform="translate(161.0077,515.1339)"
           id="g24"><path
             id="path26"
             style="fill:#ffffff;fill-opacity:1;fill-rule:nonzero;stroke:none"
             d="m 0,0 -91.687,17.294 c 1.992,-125.538 53.353,-239.287 135.497,-322.653 l 50.568,76.294 C 38.727,-165.889 4.441,-84.584 0,0" /></g><g
           transform="translate(701.214,435.654)"
           id="g28"><path
             id="path30"
             style="fill:#ffffff;fill-opacity:1;fill-rule:nonzero;stroke:none"
             d="m 0,0 c -20.87,50.281 -91.982,65.784 -104.274,1.912 l -2.414,-1.68 -114.108,-0.393 c -12.047,63.585 -83.353,54.182 -104.577,2.19 -93.752,65.063 -42.935,204.243 74.655,159.609 -0.608,25.705 3.853,52.928 14.64,76.449 17.904,39.041 58.555,64.488 73.406,105.674 l 18.772,-31.327 c 17.619,-26.698 46.187,-48.617 58.673,-78.443 9.121,-21.791 10.99,-46.924 12.589,-70.3 46.617,15.519 96.778,4.634 117.003,-43.642 C 64.78,71.318 39.611,28.316 0,0 m -146.304,-104.402 c 1.469,-5.843 -14.271,-30.777 -17.419,-30.667 -6.562,8.5 -14.299,17.299 -15.368,28.621 -32.372,-13.548 -71.443,-12.582 -92.058,19.448 27.796,4.824 48.131,28.658 45.127,57.42 -0.635,6.085 -0.937,8.235 -6.223,12.146 1.549,1.183 6.447,7.165 7.129,7.165 h 124.837 c 1.064,-0.299 5.609,-4.999 5.156,-7.15 0.022,-1.151 -4.491,-0.516 -5.697,-6.543 -5.736,-28.651 16.169,-55.311 42.483,-63.039 -20.584,-32.119 -55.96,-32.36 -87.967,-17.401 m 258.11,247.548 64.901,-11.284 c -1.581,33.301 -10.756,67.868 -23.304,98.749 -12.229,30.099 -29.628,57.153 -48.681,83.253 l -3.424,-1.48 -35.35,-52.098 C 49.985,281.859 31.854,304.134 8.809,318.127 l 52.2,38.094 c -41.815,37.902 -97.79,63.875 -153.46,74.373 -8.954,1.689 -24.826,4.592 -33.446,4.667 -2.372,0.021 -3.811,1 -3.483,-2.065 0.85,-7.97 13.247,-56.476 11.201,-58.65 -28.763,4.351 -58.689,4.137 -87.465,0.007 l 14.107,60.641 c -68.924,-4.687 -135.176,-32.523 -187.684,-76.855 l 0.003,-2.867 50.82,-35.244 c -21.377,-17.119 -41.031,-36.287 -57.14,-58.552 l -37.391,54.328 c -41.427,-52.589 -67.225,-116.689 -74.791,-183.408 l 66.334,10.546 c -6.15,-27.272 -5.5,-55.917 -0.004,-83.217 l -66.302,11.271 c 6.572,-67.066 33.756,-131.112 74.762,-184.136 l 37.391,55.745 c 16.478,-21.675 33.591,-45.109 57.137,-59.277 l -0.875,-2.912 -51.317,-33.767 c 49.525,-44.976 118.721,-73.867 185.562,-80.374 2.526,-0.246 5.235,-1.247 4.85,2.011 -2.2,18.601 -10.379,39.588 -12.637,58.624 28.416,-2.972 57.76,-5.23 86.045,0.009 -2.386,-18.409 -10.277,-37.727 -12.514,-55.908 -0.322,-2.622 -1.472,-5.02 1.941,-4.78 50.222,3.526 109.176,24.807 151.555,51.638 13.297,8.419 25.189,18.656 38.202,27.419 l -0.874,2.912 -52.722,34.442 c 21.441,16.601 42.013,35.457 56.449,58.557 l 34.591,-53.566 3.513,-0.785 C 144.851,-60.148 171.01,4.232 178.112,71.187 L 111.809,59.922 c 4.07,27.615 5.496,55.757 -0.003,83.224" /></g><g
           transform="translate(561.8724,159.7892)"
           id="g32"><path
             id="path34"
             style="fill:#ffffff;fill-opacity:1;fill-rule:nonzero;stroke:none"
             d="m 0,0 -16.814,-90.501 c 127.922,1.356 243.78,53.958 327.937,138.248 L 239.151,97.396 C 172.215,39.377 89.621,2.726 0,0" /></g><g
           transform="translate(828.7441,287.259)"
           id="g36"><path
             id="path38"
             style="fill:#ffffff;fill-opacity:1;fill-rule:nonzero;stroke:none"
             d="M 0,0 48.294,-75.582 C 129.335,7.589 179.936,120.53 181.934,245.084 L 92.991,227.986 C 88.365,143.876 55.316,63.007 0,0" /></g><g
           transform="translate(254.1048,788.5275)"
           id="g40"><path
             id="path42"
             style="fill:#ffffff;fill-opacity:1;fill-rule:nonzero;stroke:none"
             d="M 0,0 -51.324,79.61 C -133.567,-4.887 -184.429,-120.06 -184.86,-246.908 l 91.811,16.158 C -87.666,-146.201 -54.876,-64.173 0,0" /></g><g
           transform="translate(921.6595,557.654)"
           id="g44"><path
             id="path46"
             style="fill:#ffffff;fill-opacity:1;fill-rule:nonzero;stroke:none"
             d="M 0,0 89.095,-15.951 C 88.646,109.608 38.8,223.736 -41.993,307.978 L -92.902,230.885 C -36.853,166.923 -4.727,85.116 0,0" /></g><g
           transform="translate(765.4897,845.2043)"
           id="g48"><path
             id="path50"
             style="fill:#ffffff;fill-opacity:1;fill-rule:nonzero;stroke:none"
             d="m 0,0 c 5.267,-3.721 32.92,-26.573 35.544,-26.485 l 74.678,50.962 C 25.734,110.496 -91.436,164.285 -220.96,165.514 l 18.901,-97.386 C -129.74,66.269 -58.762,41.517 0,0" /></g><g
           transform="translate(519.5455,914.6061)"
           id="g52"><path
             id="path54"
             style="fill:#ffffff;fill-opacity:1;fill-rule:nonzero;stroke:none"
             d="M 0,0 17.608,96.133 C -111.761,95.362 -228.921,42.155 -313.652,-43.28 l 77.143,-53.978 C -172.042,-38.378 -87.649,-3.492 0,0" /></g><g
           transform="translate(921.6595,557.6541)"
           id="g56"><path
             id="path58"
             style="fill:#293faa;fill-opacity:1;fill-rule:nonzero;stroke:none"
             d="m 0,0 c -4.727,85.116 -36.853,166.923 -92.902,230.885 l 50.909,77.093 C 38.8,223.736 88.646,109.608 89.095,-15.951 Z m -44.621,-345.977 -48.294,75.582 c 55.315,63.007 88.364,143.876 92.991,227.986 l 88.943,17.098 C 87.021,-149.865 36.42,-262.806 -44.621,-345.977 m -668.795,-5.363 74.774,50.595 c 65.833,-58.219 148.55,-92.189 236.637,-97.733 l 17.882,-89.92 c -128.327,0.662 -244.668,52.918 -329.293,137.058 m -47.236,308.82 c 4.441,-84.584 38.727,-165.889 94.378,-229.065 l -50.567,-76.294 c -82.144,83.366 -133.506,197.115 -135.498,322.652 z m 41.773,353.004 51.324,-79.61 C -722.43,166.701 -755.221,84.673 -760.604,0.123 l -91.81,-16.158 c 0.43,126.848 51.292,242.022 133.535,326.519 m 316.765,46.468 c -87.649,-3.492 -172.042,-38.378 -236.509,-97.258 l -77.143,53.978 c 84.731,85.435 201.891,138.642 331.26,139.413 z m 293.477,-419.03 66.304,11.265 c -7.103,-66.955 -33.262,-131.335 -74.745,-184.139 l -3.513,0.785 -34.591,53.566 c -14.437,-23.1 -35.008,-41.956 -56.449,-58.557 l 52.722,-34.442 0.874,-2.912 c -13.013,-8.763 -24.905,-19 -38.203,-27.419 -42.378,-26.831 -101.332,-48.112 -151.555,-51.638 -3.412,-0.24 -2.263,2.158 -1.94,4.78 2.237,18.181 10.127,37.499 12.514,55.908 -28.285,-5.239 -57.629,-2.981 -86.045,-0.009 2.257,-19.036 10.436,-40.023 12.637,-58.624 0.385,-3.258 -2.325,-2.257 -4.851,-2.011 -66.84,6.507 -136.037,35.398 -185.561,80.374 l 51.316,33.767 0.875,2.912 c -23.546,14.168 -40.658,37.602 -57.137,59.277 l -37.39,-55.745 c -41.007,53.024 -68.191,117.07 -74.763,184.136 l 66.302,-11.271 c -5.495,27.3 -6.146,55.945 0.004,83.217 l -66.333,-10.546 c 7.565,66.719 33.364,130.818 74.791,183.408 l 37.39,-54.328 c 16.109,22.265 35.763,41.433 57.14,58.552 l -50.82,35.244 -0.002,2.867 c 52.508,44.333 118.76,72.168 187.683,76.855 l -14.106,-60.641 c 28.775,4.13 58.702,4.344 87.464,-0.007 2.047,2.174 -10.351,50.68 -11.201,58.65 -0.327,3.065 1.111,2.086 3.484,2.065 8.619,-0.075 24.491,-2.978 33.446,-4.667 55.669,-10.498 111.645,-36.471 153.46,-74.373 l -52.201,-38.094 c 23.046,-13.993 41.176,-36.268 57.14,-57.841 l 35.349,52.097 3.424,1.481 c 19.054,-26.1 36.452,-53.154 48.682,-83.253 C -54.495,77.73 -45.32,43.163 -43.739,9.862 l -64.9,11.284 c 5.498,-27.467 4.073,-55.61 0.002,-83.224 m 62.69,374.105 -74.679,-50.962 c -2.624,-0.088 -30.276,22.764 -35.544,26.485 -58.762,41.517 -129.739,66.269 -202.059,68.128 l -18.901,97.386 c 129.524,-1.229 246.695,-55.018 331.183,-141.037 m -330.654,-800.392 16.814,90.5 c 89.621,2.726 172.215,39.377 239.151,97.396 l 71.972,-49.649 c -84.157,-84.29 -200.015,-136.892 -327.937,-138.247 m 349.779,825.547 c -46.081,46.081 -99.745,82.262 -159.504,107.537 -61.876,26.172 -127.596,39.442 -195.333,39.442 -67.738,0 -133.457,-13.27 -195.334,-39.442 -59.758,-25.275 -113.422,-61.456 -159.503,-107.537 -46.081,-46.08 -82.261,-99.745 -107.537,-159.502 -26.172,-61.877 -39.441,-127.597 -39.441,-195.334 0,-67.738 13.269,-133.458 39.441,-195.334 25.276,-59.758 61.456,-113.422 107.537,-159.503 46.081,-46.081 99.745,-82.261 159.503,-107.537 61.877,-26.171 127.596,-39.441 195.334,-39.441 67.737,0 133.457,13.27 195.333,39.441 59.759,25.276 113.423,61.456 159.504,107.537 46.08,46.081 82.26,99.745 107.536,159.503 26.172,61.876 39.441,127.596 39.441,195.334 0,67.737 -13.269,133.457 -39.441,195.334 -25.276,59.757 -61.456,113.422 -107.536,159.502" /></g><g
           transform="translate(628.5759,599.3452)"
           id="g60"><path
             id="path62"
             style="fill:#293faa;fill-opacity:1;fill-rule:nonzero;stroke:none"
             d="m 0,0 c -1.599,23.376 -3.468,48.509 -12.589,70.3 -12.486,29.826 -41.054,51.744 -58.673,78.443 l -18.772,31.327 c -14.851,-41.186 -55.502,-66.633 -73.406,-105.674 -10.787,-23.521 -15.248,-50.744 -14.64,-76.449 -117.59,44.634 -168.407,-94.546 -74.655,-159.609 21.224,51.992 92.53,61.395 104.577,-2.19 l 114.108,0.393 2.414,1.68 c 12.292,63.872 83.404,48.369 104.274,-1.912 39.611,28.315 64.78,71.318 44.365,120.049 C 96.779,4.633 46.617,15.519 0,0" /></g><g
           transform="translate(600.3935,411.6917)"
           id="g64"><path
             id="path66"
             style="fill:#293faa;fill-opacity:1;fill-rule:nonzero;stroke:none"
             d="M 0,0 C 1.207,6.027 5.719,5.393 5.698,6.544 6.15,8.695 1.606,13.395 0.541,13.693 h -124.837 c -0.682,0 -5.58,-5.981 -7.128,-7.165 5.286,-3.911 5.587,-6.061 6.223,-12.146 3.003,-28.762 -17.332,-52.596 -45.128,-57.42 20.616,-32.029 59.686,-32.996 92.059,-19.448 1.069,-11.322 8.806,-20.121 15.367,-28.621 3.148,-0.109 18.888,24.825 17.419,30.668 32.008,-14.96 67.384,-14.719 87.967,17.401 C 16.169,-55.31 -5.735,-28.651 0,0" /></g></g></g></g></svg>